<svg xmlns="http://www.w3.org/2000/svg" width="512.000000pt" height="512.000000pt" viewBox="0 0 512.000000 512.000000" preserveAspectRatio="xMidYMid meet"><g transform="translate(0.000000,512.000000) scale(0.100000,-0.100000)" fill="#000000" stroke="none"><path d="M2315 5109 c-800 -83 -1501 -518 -1927 -1196 -487 -774 -516 -1777 -75 -2578 200 -364 487 -676 841 -913 238 -159 600 -311 876 -366 214 -43 295 -51 530 -51 236 0 333 10 532 51 880 184 1615 842 1898 1702 92 278 125 491 125 802 0 301 -32 513 -116 775 -124 390 -330 728 -622 1024 -399 404 -893 653 -1462 737 -123 18 -478 26 -600 13z m-30 -2065 c198 -432 361 -782 363 -777 1 4 143 357 315 783 l312 775 443 3 442 2 0 -29 c0 -25 -22 -50 -140 -162 l-140 -132 0 -947 0 -948 135 -130 c116 -112 135 -135 135 -161 l0 -31 -625 0 -625 0 0 28 c0 23 25 53 140 166 l140 137 -1 742 0 742 -127 -320 c-70 -176 -231 -582 -357 -902 l-230 -583 -50 0 -50 0 -415 905 -415 905 -3 -633 c-2 -464 1 -640 9 -660 7 -16 92 -126 191 -245 135 -165 178 -224 178 -244 l0 -28 -475 0 -475 0 0 26 c0 18 50 86 180 244 99 120 184 230 190 245 13 34 14 1514 1 1548 -5 13 -82 111 -170 217 -124 149 -161 200 -161 222 l0 28 463 0 463 0 359 -786z"/></g></svg>
